<svg xmlns="http://www.w3.org/2000/svg" viewBox="0 0 257.7 255.06"><defs><style>.cls-1{fill:#2f2e41;}.cls-2{fill:#fff;}.cls-3{fill:#3f3d56;}.cls-4{fill:#e6e6e6;}.cls-5{fill:#fd7e14;}</style></defs><g id="Capa_2" data-name="Capa 2"><g id="Capa_1-2" data-name="Capa 1"><ellipse class="cls-1" cx="59.46" cy="250.97" rx="10.9" ry="4.09"/><ellipse class="cls-1" cx="85.63" cy="250.42" rx="10.9" ry="4.09"/><ellipse class="cls-1" cx="116.99" cy="179.93" rx="21.53" ry="6.76" transform="translate(-74.23 82.48) rotate(-29.96)"/><circle class="cls-1" cx="68.18" cy="193.46" r="43.07" transform="matrix(0.16, -0.99, 0.99, 0.16, -133.7, 229.77)"/><rect class="cls-1" x="48.56" y="227.25" width="13.08" height="23.44"/><rect class="cls-1" x="74.72" y="227.25" width="13.08" height="23.44"/><circle class="cls-2" cx="69.27" cy="182.55" r="14.72"/><circle class="cls-3" cx="69.27" cy="182.55" r="4.91"/><path class="cls-4" d="M26.4,153.4c-3.47-15.57,7.64-31.31,24.83-35.15s34,5.68,37.43,21.25-7.92,21.32-25.11,25.16S29.88,169,26.4,153.4Z"/><ellipse class="cls-1" cx="19.67" cy="173.47" rx="6.76" ry="21.53" transform="translate(-145.49 116.91) rotate(-64.63)"/><path class="cls-2" d="M47,209c0,4.22,10.85,12.54,22.89,12.54s23.34-11.87,23.34-16.08-11.29.82-23.34.82S47,204.78,47,209Z"/><ellipse class="cls-1" cx="218.35" cy="250.97" rx="10.9" ry="4.09"/><ellipse class="cls-1" cx="192.19" cy="250.42" rx="10.9" ry="4.09"/><ellipse class="cls-1" cx="160.82" cy="179.93" rx="6.76" ry="21.53" transform="translate(-75.38 229.4) rotate(-60.04)"/><circle class="cls-1" cx="209.63" cy="193.45" r="43.07"/><rect class="cls-1" x="216.17" y="227.25" width="13.08" height="23.44"/><rect class="cls-1" x="190.01" y="227.25" width="13.08" height="23.44"/><circle class="cls-2" cx="199.54" cy="182.55" r="14.72"/><ellipse class="cls-3" cx="192.54" cy="180.55" rx="4.92" ry="4.89" transform="translate(-71.28 188.91) rotate(-44.97)"/><path class="cls-5" d="M214.26,164.66c-17.19-3.84-28.58-9.58-25.1-25.16s20.23-25.08,37.42-21.25,28.31,19.58,24.83,35.15S231.45,168.5,214.26,164.66Z"/><ellipse class="cls-1" cx="249.14" cy="205.47" rx="6.76" ry="21.53" transform="translate(-44.4 70.84) rotate(-14.87)"/><path class="cls-2" d="M199.87,206.27c-7.9,0-15.32-5-15.32-.82s7.42,16.08,15.32,16.08,15-8.32,15-12.54S207.78,206.27,199.87,206.27Z"/><path class="cls-5" d="M144.22,122.05h-3.83a12.94,12.94,0,0,1-12.92-12.93v-3.21c0-8,1.51-14.61,4.48-19.79a104.12,104.12,0,0,1,12.54-16.85A73.66,73.66,0,0,0,153,59a17.28,17.28,0,0,0,2.69-9.56c0-8-5.2-11.86-15.89-11.86a64.51,64.51,0,0,0-17.51,2.63A14.76,14.76,0,0,1,103.51,26v-6.5a14.46,14.46,0,0,1,8.54-13.25A78.05,78.05,0,0,1,143.86,0c11.44,0,21.77,1.92,30.7,5.71s16,9.16,21,15.93a38.32,38.32,0,0,1,7.54,23.24c0,9-2.45,16.8-7.29,23.25S184.19,81.5,175.45,88.9a146.13,146.13,0,0,0-13.07,12.3A22.82,22.82,0,0,0,157,111.31,12.89,12.89,0,0,1,144.22,122.05Z"/><path class="cls-5" d="M142.09,182.82h-.5a24,24,0,0,1,0-47.9h.5a24,24,0,0,1,0,47.9Z"/></g></g></svg>