<?xml version="1.0" encoding="utf-8"?>
<!-- Generator: Adobe Illustrator 25.0.0, SVG Export Plug-In . SVG Version: 6.00 Build 0)  -->
<svg version="1.1" id="Capa_1" xmlns="http://www.w3.org/2000/svg" xmlns:xlink="http://www.w3.org/1999/xlink" x="0px" y="0px"
	 viewBox="0 0 325.3 272.7" style="enable-background:new 0 0 325.3 272.7;" xml:space="preserve">
<style type="text/css">
	.st0{fill:#144D2A;}
	.st1{fill:#FFFFFF;}
	.st2{fill:#FFB7B7;}
	.st3{fill:#3F3D56;}
	.st4{fill:#2F2E41;}
	.st5{opacity:0.1;enable-background:new    ;}
</style>
<g id="Capa_2_1_">
	<g id="Capa_1-2">
		<ellipse id="baf12095-0797-4180-a98d-6422936d747a" class="st0" cx="70.7" cy="73.1" rx="70.7" ry="70.2"/>
		<path id="b582f34e-fd02-4670-b1d8-d23f069ed737-1162" class="st1" d="M62.7,102c-1.9,0-3.7-0.6-5.2-1.8l-0.1-0.1L37.6,84.7
			c-3.8-3.1-4.5-8.7-1.6-12.6c2.8-3.9,8.3-4.7,12.1-1.8c0.1,0.1,0.1,0.1,0.2,0.2l0,0l12.8,10l30.2-40.3c2.8-3.9,8.3-4.7,12.1-1.8
			c0.1,0.1,0.1,0.1,0.2,0.2l0,0l-0.2,0.3l0.2-0.3c3.9,3.1,4.6,8.6,1.6,12.6L69.7,98.5C68.1,100.7,65.5,102,62.7,102L62.7,102z"/>
		<path class="st2" d="M325.2,11.2c0.7-5.4-3-10.3-8.4-11.1c0,0-0.1,0-0.1,0c-4.6-0.7-9,1.9-10.7,6.1l-21.1,23.7l6.2,17l21.2-27.7
			c5.2,1.7,10.8-1.1,12.5-6.3C325,12.3,325.1,11.8,325.2,11.2z"/>
		<polygon class="st3" points="237.7,103.5 307.8,30.2 298.3,15.4 210.5,88.3 		"/>
		<ellipse class="st4" cx="222.1" cy="34.9" rx="24.6" ry="24.1"/>
		<path class="st4" d="M224.1,21.2c5.3-5.3,11.7-9.3,18.8-11.9c4.5-1.7,9.5-2.7,14.2-1.7s9.2,4.2,10.5,8.7c1.1,3.7,0,7.7-1.7,11.2
			s-3.9,6.8-5.3,10.4c-4.5,12.2,1.8,25.8,14,30.3c0.1,0,0.3,0.1,0.4,0.1c3.2,1.1,6.6,1.6,9.9,1.4c-4.6,0.6-8.9,2.8-13.5,3.9
			s-9.9,1.1-13.3-2.1c-3.6-3.4-3.6-8.9-3.5-13.8c0.3-7.2,0.5-14.5,0.8-21.7c0.1-3.7,0.2-7.5-1.1-11s-4.6-6.5-8.4-6.4
			c-2.9,0-5.4,1.7-7.7,3.4s-4.7,3.5-7.6,3.7s-6.1-1.8-5.9-4.6L224.1,21.2z"/>
		<path class="st2" d="M128.7,196.7c-5.3,1.5-10.8-1.6-12.3-6.8c-1.2-4.4,0.8-9,4.8-11.2l21.2-23.6l17.9,3.8l-25.2,24.3
			c2.3,4.8,0.3,10.6-4.6,12.9c-0.1,0-0.1,0.1-0.2,0.1C129.9,196.4,129.3,196.6,128.7,196.7L128.7,196.7z"/>
		<polygon class="st3" points="198.6,112.1 145.7,177.3 129.5,170 191.7,75 		"/>
		<polygon class="st2" points="156.4,308.8 143.8,308.6 145.3,350.8 156.4,350.8 		"/>
		<path class="st4" d="M159.2,347.2h-21.8c-7.6-0.1-13.8,6-13.9,13.7c0,0,0,0,0,0v0.4h35.8V347.2z"/>
		<polygon class="st2" points="239.9,297.6 226.1,306.3 253.7,338.8 263,333 		"/>
		<path class="st4" d="M263.4,328.5L245,340l0,0c-6.3,3.9-8.3,12.2-4.4,18.6c0.1,0.1,0.1,0.2,0.2,0.3l0.2,0.4l30.1-19L263.4,328.5z"
			/>
		<path class="st3" d="M244.8,168.9c0,0-30.6-99.7-40.4-101.1s-25.7,25.6-25.7,25.6c-20.6,25.7-41.7,109-41.7,109
			s35.3,2.2,61.1,15.6s56.3-0.7,56.3-0.7L244.8,168.9z"/>
		<path class="st5" d="M244.8,168.9c0,0-30.6-99.7-40.4-101.1s-21.7,25.9-21.7,25.9c-10.2,41.5-45.8,108.7-45.8,108.7
			s35.3,2.2,61.1,15.6s56.3-0.7,56.3-0.7L244.8,168.9z"/>
		<polygon class="st4" points="219.7,139.1 219.7,189.2 225.7,261.8 255.7,316.7 241.4,326.7 200.4,274.5 184.2,222.6 158.8,337.4 
			139.7,336.1 152.9,176.9 178.1,132.1 		"/>
		<path class="st0" d="M188.8,90.6c-9.6,9.4-0.7,19.4-0.7,19.4l-10.9,24.1l43,11.4l15-65.9L225,69c-20.5-0.7-20.5-1.1-20.5-1.1
			C200.9,71.3,188.8,90.6,188.8,90.6z"/>
		<path class="st3" d="M237,72.8c-8.2-5.9-19.6-4.2-25.7,3.8l-0.1,0.2c-10.8,14.8-20.8,38.6-7,68.3c22.1,47.7,41.4,72.2,49.2,72.2
			c0.3,0,0.7-0.1,1-0.2c4.8-1.6,11.8-9.6,13-16.6c0.5-2.5,0.4-6-2.7-8.4c-8.8-6.9-24.7-28.5-29.6-56.9c-2.7-15.7,2.6-30,7.5-39.2
			c4.3-7.9,2-17.8-5.3-23l0,0L237,72.8z"/>
		<ellipse class="st2" cx="214.7" cy="41" rx="18.1" ry="17.7"/>
		<path class="st4" d="M189.2,39.7h26.1l0.3-3.7l1.4,3.7h4l0.5-7.3l2.7,7.3h7.8v-0.4c-0.1-10.7-8.8-19.2-19.5-19.1h-3.7
			c-10.7-0.1-19.4,8.5-19.5,19.1L189.2,39.7z"/>
		<path class="st4" d="M228,52.9l11.1-3.5V22.8h-21l0.5,0.5C225.9,30.4,233.9,55.6,228,52.9z"/>
	</g>
</g>
</svg>
