<svg xmlns="http://www.w3.org/2000/svg" viewBox="0 0 522.42 511.75"><defs><style>.cls-1{fill:#e6e6e6;}.cls-2{fill:#a0616a;}.cls-3{fill:#2f2e41;}.cls-4{fill:#ccc;}.cls-5{fill:#f9a826;}</style></defs><g id="Capa_2" data-name="Capa 2"><g id="Capa_1-2" data-name="Capa 1"><path class="cls-1" d="M84.74,448.66l-22-66.46s24.22,24.23,24.22,44.1l-4.35-46S95,397.11,93.77,422.57,84.74,448.66,84.74,448.66Z"/><path class="cls-1" d="M428.44,479.32c0,43.72-86.66,30.27-192.81,30.36s-191.53,13.69-191.57-30,86.63-53.3,192.78-53.39S428.4,435.61,428.44,479.32Z"/><polygon class="cls-2" points="354.05 420.29 340.17 420.29 333.57 366.76 354.05 366.76 354.05 420.29"/><path class="cls-3" d="M328.72,416.32H357v16.85H313.41v-1.54A15.32,15.32,0,0,1,328.72,416.32Z"/><polygon class="cls-2" points="456.05 499.29 442.17 499.29 435.57 445.76 456.05 445.76 456.05 499.29"/><path class="cls-2" d="M520.06,340.27a10.32,10.32,0,0,0-1.4-14.52,10.47,10.47,0,0,0-1.5-1L484.93,193.43l-20.6,8.87,38.33,127a10.37,10.37,0,0,0,17.4,11Z"/><path class="cls-3" d="M412.72,326.66,434.48,490l27.1-5.58s-4-119,9.56-133.32-17.42-39.47-17.42-39.47Z"/><path class="cls-3" d="M421.72,281.66l-10,15s-77-32-77,19-4.41,85.61-6,88,18.43,8.59,28,7c0,0,11.79-82.22,11-87,0,0,75.53,37,89.87,33.84s17.73-14.47,20.13-20.84-1-57-1-57l-47.81-14.59Z"/><path class="cls-4" d="M423.06,191.6l-2.85-3.42S388.29,116.35,400.83,97s67.27-22.24,69-21.1-4.09,15.95-.1,22.79c0,0-42.39,9.19-45.24,10.33s22,43.27,22,43.27l-2.85,25.66Z"/><path class="cls-4" d="M478.93,156.25s-29.64,3.42-30.78,3.42-1.71-7.41-1.71-7.41l-26.23,35.92s-12.92,104.19-9.49,102.48,66.5,8.11,67.07,3.55-.57-27.36,1.14-28.5,29.64-71.83,29.64-71.83-2.85-14.82-12.54-19.95S478.93,156.25,478.93,156.25Z"/><path class="cls-4" d="M499.45,184.19l9.12,9.69s13.56,111.36,6.15,114.78-22,3-22,3l-14.36-52.79Z"/><circle class="cls-2" cx="450.44" cy="122.96" r="26.24"/><path class="cls-3" d="M444.29,127.06c-.36-5.45-7.23-5.63-12.68-5.69s-12,.15-15.07-4.35c-2-3-1.65-7.1,0-10.29s4.46-5.64,7.18-8c7-6.08,14.3-12.13,22.76-16s18.36-5.47,27.12-2.35c10.77,3.85,25.33,23.63,26.59,35s-3.28,23-10.94,31.44-25.18,5.07-36.21,8.09c6.7-9.49,2.28-26.73-8.46-31.16Z"/><circle class="cls-5" cx="188.44" cy="403.47" r="62.99"/><path class="cls-5" d="M146.37,336a45.13,45.13,0,0,1-41.25-26.78L5.16,84.13A59.83,59.83,0,1,1,117,42.26l72.38,235.41a45.08,45.08,0,0,1-43,58.33Z"/></g></g></svg>